<svg xmlns="http://www.w3.org/2000/svg" viewBox="0 0 900 640">
  <defs>
    <linearGradient id="g" x1="0" x2="1" y1="0" y2="1">
      <stop offset="0" stop-color="#22d3ee"/>
      <stop offset="0.6" stop-color="#7c3aed"/>
      <stop offset="1" stop-color="#f43f5e"/>
    </linearGradient>
    <radialGradient id="r" cx="30%" cy="30%" r="65%">
      <stop offset="0" stop-color="rgba(34,211,238,0.32)"/>
      <stop offset="0.55" stop-color="rgba(124,58,237,0.20)"/>
      <stop offset="1" stop-color="rgba(0,0,0,0)"/>
    </radialGradient>
    <filter id="glow" x="-30%" y="-30%" width="160%" height="160%">
      <feGaussianBlur stdDeviation="10" result="b"/>
      <feMerge>
        <feMergeNode in="b"/>
        <feMergeNode in="SourceGraphic"/>
      </feMerge>
    </filter>
  </defs>
  <rect width="900" height="640" rx="52" fill="rgba(255,255,255,0.04)" stroke="rgba(255,255,255,0.12)" stroke-width="3"/>
  <circle cx="260" cy="200" r="230" fill="url(#r)"/>
  <circle cx="670" cy="470" r="230" fill="url(#r)" opacity="0.9"/>
  <g filter="url(#glow)">
    <path d="M210 420c0-122 98-220 220-220s220 98 220 220" fill="none" stroke="url(#g)" stroke-width="10" opacity="0.75"/>
    <path d="M265 420c0-92 74-166 165-166s165 74 165 166" fill="none" stroke="url(#g)" stroke-width="7" opacity="0.5"/>
    <path d="M335 420c0-52 42-94 95-94s95 42 95 94" fill="none" stroke="url(#g)" stroke-width="5" opacity="0.35"/>
  </g>
  <g opacity="0.9">
    <rect x="120" y="110" width="240" height="72" rx="24" fill="rgba(255,255,255,0.06)" stroke="rgba(255,255,255,0.12)"/>
    <text x="240" y="155" text-anchor="middle" font-family="Orbitron, Poppins, Arial, sans-serif" font-size="22" fill="rgba(234,240,255,0.85)">Web Dev</text>
    <rect x="540" y="430" width="240" height="72" rx="24" fill="rgba(255,255,255,0.06)" stroke="rgba(255,255,255,0.12)"/>
    <text x="660" y="475" text-anchor="middle" font-family="Orbitron, Poppins, Arial, sans-serif" font-size="22" fill="rgba(234,240,255,0.85)">UI / UX</text>
  </g>
</svg>
