<svg xmlns="http://www.w3.org/2000/svg" viewBox="0 0 1200 700">
  <defs>
    <linearGradient id="g" x1="0" x2="1" y1="0" y2="1">
      <stop offset="0" stop-color="#22d3ee"/>
      <stop offset="0.55" stop-color="#7c3aed"/>
      <stop offset="1" stop-color="#f43f5e"/>
    </linearGradient>
    <radialGradient id="r" cx="28%" cy="30%" r="70%">
      <stop offset="0" stop-color="rgba(124,58,237,0.28)"/>
      <stop offset="0.55" stop-color="rgba(34,211,238,0.18)"/>
      <stop offset="1" stop-color="rgba(0,0,0,0)"/>
    </radialGradient>
  </defs>
  <rect width="1200" height="700" fill="rgba(0,0,0,0.18)"/>
  <circle cx="330" cy="200" r="340" fill="url(#r)"/>
  <circle cx="980" cy="520" r="340" fill="url(#r)" opacity="0.9"/>
  <rect x="70" y="70" width="1060" height="560" rx="44" fill="rgba(255,255,255,0.05)" stroke="rgba(255,255,255,0.12)" stroke-width="3"/>
  <g opacity="0.95">
    <text x="120" y="180" font-family="Orbitron, Poppins, Arial, sans-serif" font-size="44" font-weight="700" fill="rgba(234,240,255,0.9)">Tip Calculator</text>
    <text x="120" y="230" font-family="Poppins, Arial, sans-serif" font-size="22" fill="rgba(234,240,255,0.7)">Python " Split bills " Percent presets</text>
  </g>
  <g transform="translate(120,285)" opacity="0.95">
    <rect width="430" height="330" rx="34" fill="rgba(255,255,255,0.06)" stroke="rgba(255,255,255,0.12)"/>
    <text x="40" y="80" font-family="Poppins, Arial, sans-serif" font-size="20" fill="rgba(234,240,255,0.7)">Bill amount</text>
    <rect x="40" y="98" width="350" height="48" rx="18" fill="rgba(0,0,0,0.18)" stroke="rgba(255,255,255,0.12)"/>
    <text x="40" y="200" font-family="Poppins, Arial, sans-serif" font-size="20" fill="rgba(234,240,255,0.7)">Tip %</text>
    <rect x="40" y="218" width="96" height="52" rx="18" fill="url(#g)" opacity="0.35"/>
    <rect x="152" y="218" width="96" height="52" rx="18" fill="url(#g)" opacity="0.25"/>
    <rect x="264" y="218" width="126" height="52" rx="18" fill="url(#g)" opacity="0.18"/>
  </g>
  <g transform="translate(590,300)" opacity="0.95">
    <rect width="500" height="280" rx="34" fill="rgba(255,255,255,0.06)" stroke="rgba(255,255,255,0.12)"/>
    <text x="40" y="88" font-family="Orbitron, Poppins, Arial, sans-serif" font-size="28" fill="rgba(234,240,255,0.88)">Total</text>
    <rect x="40" y="112" width="420" height="18" rx="9" fill="url(#g)" opacity="0.45"/>
    <text x="40" y="180" font-family="Orbitron, Poppins, Arial, sans-serif" font-size="28" fill="rgba(234,240,255,0.88)">Per Person</text>
    <rect x="40" y="204" width="360" height="18" rx="9" fill="url(#g)" opacity="0.30"/>
  </g>
</svg>
