<svg xmlns="http://www.w3.org/2000/svg" viewBox="0 0 1200 700">
  <defs>
    <linearGradient id="g" x1="0" x2="1" y1="0" y2="1">
      <stop offset="0" stop-color="#22d3ee"/>
      <stop offset="0.55" stop-color="#7c3aed"/>
      <stop offset="1" stop-color="#f43f5e"/>
    </linearGradient>
    <radialGradient id="r" cx="20%" cy="25%" r="70%">
      <stop offset="0" stop-color="rgba(34,211,238,0.35)"/>
      <stop offset="0.55" stop-color="rgba(124,58,237,0.22)"/>
      <stop offset="1" stop-color="rgba(0,0,0,0)"/>
    </radialGradient>
  </defs>
  <rect width="1200" height="700" fill="rgba(0,0,0,0.18)"/>
  <circle cx="240" cy="180" r="320" fill="url(#r)"/>
  <circle cx="980" cy="520" r="320" fill="url(#r)" opacity="0.9"/>
  <rect x="70" y="70" width="1060" height="560" rx="44" fill="rgba(255,255,255,0.05)" stroke="rgba(255,255,255,0.12)" stroke-width="3"/>
  <g opacity="0.95">
    <text x="120" y="180" font-family="Orbitron, Poppins, Arial, sans-serif" font-size="44" font-weight="700" fill="rgba(234,240,255,0.9)">Online Food Ordering</text>
    <text x="120" y="230" font-family="Poppins, Arial, sans-serif" font-size="22" fill="rgba(234,240,255,0.7)">Responsive UI " Cart " Checkout</text>
  </g>
  <g transform="translate(120,290)" opacity="0.95">
    <rect width="320" height="260" rx="28" fill="rgba(255,255,255,0.06)" stroke="rgba(255,255,255,0.12)"/>
    <path d="M84 70h160l-18 110H100L84 70Z" fill="url(#g)" opacity="0.35"/>
    <path d="M110 190a16 16 0 1 0 0 32a16 16 0 1 0 0-32Zm128 0a16 16 0 1 0 0 32a16 16 0 1 0 0-32Z" fill="rgba(234,240,255,0.75)"/>
    <path d="M94 70h30l10 60h126" fill="none" stroke="rgba(234,240,255,0.75)" stroke-width="10" stroke-linecap="round"/>
  </g>
  <g transform="translate(490,290)" opacity="0.95">
    <rect width="600" height="76" rx="22" fill="rgba(255,255,255,0.05)" stroke="rgba(255,255,255,0.10)"/>
    <rect y="98" width="600" height="76" rx="22" fill="rgba(255,255,255,0.05)" stroke="rgba(255,255,255,0.10)"/>
    <rect y="196" width="600" height="76" rx="22" fill="rgba(255,255,255,0.05)" stroke="rgba(255,255,255,0.10)"/>
    <rect x="26" y="26" width="220" height="24" rx="12" fill="url(#g)" opacity="0.5"/>
    <rect x="26" y="124" width="280" height="24" rx="12" fill="url(#g)" opacity="0.35"/>
    <rect x="26" y="222" width="250" height="24" rx="12" fill="url(#g)" opacity="0.25"/>
  </g>
</svg>
